<?xml version="1.0" encoding="utf-8"?>
<svg xmlns="http://www.w3.org/2000/svg" xmlns:xlink="http://www.w3.org/1999/xlink" style="margin: auto; background: rgba(0, 0, 0, 0) none repeat scroll 0% 0%; display: block; shape-rendering: auto;" width="100px" height="100px" viewBox="0 0 100 100" preserveAspectRatio="xMidYMid">
<g transform="translate(50 50)">
<g>
<animateTransform attributeName="transform" type="rotate" values="0;45" keyTimes="0;1" dur="0.40322580645161293s" repeatCount="indefinite"></animateTransform><path d="M29.811910371527684 -8.5 L36.81191037152769 -8.5 L36.81191037152769 8.5 L29.811910371527684 8.5 A31 31 0 0 1 27.09061162391845 15.06979634374714 L27.09061162391845 15.06979634374714 L32.04035909222428 20.019543812052973 L20.019543812052973 32.04035909222428 L15.069796343747141 27.090611623918445 A31 31 0 0 1 8.500000000000002 29.811910371527684 L8.500000000000002 29.811910371527684 L8.500000000000002 36.81191037152769 L-8.499999999999998 36.81191037152769 L-8.499999999999998 29.811910371527688 A31 31 0 0 1 -15.069796343747145 27.090611623918445 L-15.069796343747145 27.090611623918445 L-20.019543812052977 32.04035909222428 L-32.04035909222427 20.019543812052984 L-27.09061162391844 15.06979634374715 A31 31 0 0 1 -29.811910371527688 8.499999999999996 L-29.811910371527688 8.499999999999996 L-36.81191037152769 8.499999999999996 L-36.81191037152769 -8.49999999999999 L-29.811910371527688 -8.49999999999999 A31 31 0 0 1 -27.090611623918445 -15.069796343747143 L-27.090611623918445 -15.069796343747143 L-32.04035909222428 -20.019543812052973 L-20.019543812052987 -32.04035909222427 L-15.069796343747152 -27.09061162391844 A31 31 0 0 1 -8.499999999999998 -29.811910371527688 L-8.499999999999998 -29.811910371527688 L-8.5 -36.81191037152769 L8.499999999999986 -36.81191037152769 L8.499999999999988 -29.811910371527688 A31 31 0 0 1 15.069796343747141 -27.090611623918445 L15.069796343747141 -27.090611623918445 L20.019543812052973 -32.04035909222428 L32.04035909222427 -20.019543812052987 L27.09061162391844 -15.069796343747152 A31 31 0 0 1 29.811910371527684 -8.5 M0 -24A24 24 0 1 0 0 24 A24 24 0 1 0 0 -24" fill="#979797"></path></g></g>
<!-- [ldio] generated by https://loading.io/ --></svg>